<svg version="1.1" xmlns="http://www.w3.org/2000/svg" xmlns:xlink="http://www.w3.org/1999/xlink" width="800px" height="800px" viewBox="0,0,256,256"><g fill="none" fill-rule="nonzero" stroke="#ffffff" stroke-width="2" stroke-linecap="round" stroke-linejoin="round" stroke-miterlimit="10" stroke-dasharray="" stroke-dashoffset="0" font-family="none" font-weight="none" font-size="none" text-anchor="none" style="mix-blend-mode: normal"><g transform="translate(-2.80941,0) scale(10.66667,10.66667)"><path d="M12.0004,9.5l5,5M17.0004,9.5l-5,5M4.50823,13.9546l2.93143,3.8c0.35252,0.4569 0.52877,0.6854 0.75009,0.8501c0.19604,0.1458 0.41715,0.2545 0.65237,0.3206c0.26554,0.0747 0.55411,0.0747 1.13124,0.0747h7.82704c1.1201,0 1.6802,0 2.108,-0.218c0.3763,-0.1917 0.6823,-0.4977 0.874,-0.874c0.218,-0.4278 0.218,-0.9879 0.218,-2.108v-7.6c0,-1.1201 0,-1.68016 -0.218,-2.10798c-0.1917,-0.37633 -0.4977,-0.68229 -0.874,-0.87403c-0.4278,-0.21799 -0.9879,-0.21799 -2.108,-0.21799h-7.82704c-0.57713,0 -0.8657,0 -1.13124,0.07467c-0.23522,0.06614 -0.45633,0.17483 -0.65237,0.32067c-0.22132,0.16464 -0.39757,0.39312 -0.75009,0.85009l-2.93143,3.79997c-0.5396,0.6995 -0.8094,1.0493 -0.91318,1.435c-0.09158,0.3403 -0.09158,0.6989 0,1.0392c0.10378,0.3857 0.37358,0.7355 0.91318,1.435z"></path></g></g></svg>