<svg version="1.1" xmlns="http://www.w3.org/2000/svg" xmlns:xlink="http://www.w3.org/1999/xlink" width="800px" height="800px" viewBox="0,0,256,256"><g fill="#ffffff" fill-rule="evenodd" stroke="none" stroke-width="1" stroke-linecap="butt" stroke-linejoin="miter" stroke-miterlimit="10" stroke-dasharray="" stroke-dashoffset="0" font-family="none" font-weight="none" font-size="none" text-anchor="none" style="mix-blend-mode: normal"><g transform="translate(-0.9152,0.9159) scale(10.66667,10.66667)"><path d="M21.1213,2.70705c-1.1716,-1.17157 -3.071,-1.17158 -4.2426,0l-1.6798,1.6798l-7.90601,7.90595c-0.12816,0.1282 -0.21907,0.2888 -0.26303,0.4646l-1,4c-0.0852,0.3408 0.01465,0.7013 0.26303,0.9496c0.24838,0.2484 0.60887,0.3483 0.94965,0.2631l3.99996,-1c0.1759,-0.044 0.3364,-0.1349 0.4646,-0.2631l7.8485,-7.84843l1.7373,-1.73731c1.1716,-1.17157 1.1716,-3.07107 0,-4.24264zM18.2929,4.12126c0.3905,-0.39052 1.0237,-0.39052 1.4142,0l0.1716,0.17157c0.3905,0.39053 0.3905,1.0237 0,1.41422l-1.0165,1.01652l-1.5554,-1.61619zM15.8923,6.52185l1.5554,1.61619l-6.9589,6.95896l-2.11443,0.5286l0.52859,-2.1144zM4,7.99994c0,-0.55228 0.44772,-1 1,-1h5c0.5523,0 1,-0.44771 1,-1c0,-0.55228 -0.4477,-1 -1,-1h-5c-1.65685,0 -3,1.34315 -3,3v10.99996c0,1.6569 1.34315,3 3,3h11c1.6569,0 3,-1.3431 3,-3v-5c0,-0.5522 -0.4477,-1 -1,-1c-0.5523,0 -1,0.4478 -1,1v5c0,0.5523 -0.4477,1 -1,1h-11c-0.55228,0 -1,-0.4477 -1,-1z"></path></g></g></svg>